<svg width="170" height="92" viewBox="0 0 170 92" fill="none" xmlns="http://www.w3.org/2000/svg">
<rect x="0.5" y="0.5" width="169" height="91" rx="3.5" stroke="#AFB1B8"/>
<path d="M85.425 43.4082C84.9819 42.8184 84.7699 42.1213 84.8203 41.4196V38.5364C84.8203 37.6526 85.0207 36.9809 85.4216 36.5214C85.8224 36.0619 86.511 35.8331 87.4871 35.8351C88.4044 35.8351 89.0555 36.0306 89.4405 36.4217C89.8605 36.9207 90.0648 37.5309 90.018 38.1463V38.8239H88.3772V38.1375C88.383 37.9129 88.3671 37.6882 88.3296 37.4659C88.306 37.3138 88.2234 37.1732 88.0952 37.067C87.9267 36.9525 87.7145 36.897 87.5007 36.9115C87.2759 36.897 87.0529 36.9556 86.8756 37.0758C86.7327 37.1935 86.6374 37.3477 86.6038 37.5157C86.5567 37.7511 86.5351 37.9897 86.5393 38.2285V41.7276C86.5134 42.0652 86.5858 42.4029 86.7499 42.7102C86.8315 42.8141 86.9448 42.8965 87.0774 42.9483C87.2099 43 87.3564 43.0191 87.5007 43.0035C87.7109 43.0184 87.9195 42.9615 88.0816 42.8451C88.2153 42.7305 88.3013 42.581 88.3262 42.4198C88.3645 42.1876 88.3816 41.9533 88.3772 41.7188V41.009H90.018V41.6572C90.0641 42.2988 89.8648 42.9356 89.4507 43.4698C89.0736 43.898 88.4315 44.1122 87.4871 44.1122C86.5427 44.1122 85.8292 43.8834 85.425 43.4082Z" fill="#AFB1B8"/>
<path d="M92.2569 43.4376C91.8425 42.9888 91.6353 42.3347 91.6353 41.4695V38.4367C91.6353 37.5803 91.8425 36.932 92.2569 36.4921C92.6714 36.0521 93.3644 35.8331 94.336 35.8351C95.3008 35.8351 95.9904 36.0541 96.4049 36.4921C96.8193 36.932 97.03 37.5803 97.03 38.4367V41.4695C97.03 42.3259 96.8193 42.9829 96.3981 43.4346C95.9768 43.8863 95.2906 44.1122 94.336 44.1122C93.3814 44.1122 92.6748 43.8834 92.2569 43.4376ZM95.1004 42.7102C95.2488 42.4291 95.3164 42.1212 95.2974 41.8126V38.0994C95.3165 37.7969 95.25 37.4949 95.1038 37.2195C95.0205 37.1134 94.9044 37.0296 94.7686 36.9777C94.6329 36.9258 94.483 36.908 94.336 36.9262C94.1886 36.9085 94.0384 36.9265 93.9022 36.9783C93.766 37.0301 93.6492 37.1136 93.5648 37.2195C93.4155 37.4941 93.3477 37.7965 93.3678 38.0994V41.8302C93.3472 42.1388 93.4148 42.4471 93.5648 42.7278C93.6605 42.8224 93.7785 42.8982 93.9109 42.9502C94.0434 43.0021 94.1872 43.029 94.3326 43.029C94.4781 43.029 94.6219 43.0021 94.7543 42.9502C94.8867 42.8982 95.0047 42.8224 95.1004 42.7278V42.7102Z" fill="#AFB1B8"/>
<path d="M99.0037 35.9236H100.77L102.099 41.5192L103.457 35.9236H105.176L105.35 44.0003H104.079L103.943 38.3871L102.632 44.0003H101.613L100.254 38.3665L100.128 44.0003H98.844L99.0037 35.9236Z" fill="#AFB1B8"/>
<path d="M107.33 35.9236H110.082C111.667 35.9236 112.46 36.688 112.46 38.217C112.46 39.6814 111.625 40.4126 109.956 40.4106H109.019V44.0003H107.32L107.33 35.9236ZM109.681 39.3754C109.849 39.3938 110.019 39.3805 110.181 39.3364C110.342 39.2924 110.49 39.2186 110.615 39.1202C110.81 38.8475 110.896 38.5271 110.86 38.2082C110.869 37.9618 110.841 37.7154 110.778 37.475C110.754 37.3947 110.712 37.3193 110.653 37.2534C110.595 37.1874 110.522 37.1321 110.439 37.0908C110.203 36.9932 109.942 36.9488 109.681 36.9618H109.022V39.3754H109.681Z" fill="#AFB1B8"/>
<path d="M114.909 35.9236H116.734L118.606 44.0003H117.022L116.652 42.138H115.025L114.644 44.0003H113.038L114.909 35.9236ZM116.469 41.2025L115.833 37.8122L115.198 41.2025H116.469Z" fill="#AFB1B8"/>
<path d="M120.117 35.9236H121.306L123.583 40.5309V35.9236H124.992V44.0003H123.861L121.571 39.1906V44.0003H120.114L120.117 35.9236Z" fill="#AFB1B8"/>
<path d="M128.294 40.9208L126.402 35.9349H127.995L129.15 39.1376L130.234 35.9349H131.793L129.925 40.9208V44.0003H128.294V40.9208Z" fill="#AFB1B8"/>
<path d="M88.0478 47.5316V47.9539H86.6618V51.2359H86.0809V47.9539H84.688V47.5316H88.0478Z" fill="#AFB1B8"/>
<path d="M92.3926 51.2362H91.9441C91.8986 51.2386 91.8536 51.226 91.8184 51.201C91.7845 51.1795 91.7585 51.1499 91.7437 51.1159L91.3428 50.2361H89.42L89.0191 51.1159C89.0077 51.1527 88.9868 51.1868 88.9579 51.2156C88.9224 51.2402 88.8777 51.2527 88.8322 51.2508H88.3838L90.0824 47.5467H90.6735L92.3926 51.2362ZM89.5796 49.8607H91.1831L90.5037 48.3532C90.4536 48.2392 90.4116 48.1227 90.378 48.0042C90.3542 48.0746 90.3338 48.1421 90.3134 48.2007L90.2523 48.3562L89.5796 49.8607Z" fill="#AFB1B8"/>
<path d="M95.321 50.8724C95.4274 50.8772 95.534 50.8772 95.6404 50.8724C95.7322 50.8642 95.8231 50.8495 95.9122 50.8284C95.9954 50.8107 96.0771 50.7882 96.1568 50.7609C96.2315 50.7345 96.3062 50.7022 96.3844 50.67V49.8369H95.7049C95.6881 49.8378 95.6713 49.8356 95.6555 49.8305C95.6397 49.8255 95.6253 49.8177 95.6132 49.8076C95.6021 49.7993 95.5932 49.7889 95.5873 49.7772C95.5815 49.7655 95.5787 49.7529 95.5792 49.7401V49.4556H96.8974V50.8753C96.7898 50.9417 96.6762 51.0006 96.5576 51.0513C96.4365 51.1029 96.3103 51.1451 96.1805 51.1774C96.0416 51.2127 95.8996 51.2382 95.7559 51.2537C95.5912 51.2694 95.4256 51.2773 95.2599 51.2771C94.9669 51.2793 94.6762 51.2324 94.4038 51.1393C94.1495 51.051 93.9184 50.9193 93.7243 50.7521C93.5352 50.5832 93.3863 50.3839 93.2861 50.1654C93.179 49.9199 93.126 49.6593 93.1298 49.397C93.1263 49.133 93.1781 48.8706 93.2827 48.6226C93.3804 48.4031 93.5296 48.2033 93.7209 48.0359C93.9148 47.8693 94.146 47.7385 94.4004 47.6517C94.6913 47.5572 95.0001 47.5105 95.3108 47.5138C95.469 47.5137 95.6269 47.5245 95.7831 47.5461C95.9211 47.5655 96.0566 47.597 96.1873 47.64C96.3062 47.6785 96.42 47.7277 96.5271 47.7866C96.6312 47.8445 96.73 47.9092 96.8226 47.9802L96.6595 48.209C96.6468 48.2299 96.6278 48.2475 96.6044 48.2598C96.5811 48.2722 96.5544 48.279 96.5271 48.2794C96.4895 48.2783 96.453 48.2682 96.4217 48.2501C96.3708 48.2266 96.3164 48.1973 96.2553 48.1621C96.183 48.123 96.1069 48.0896 96.0277 48.0623C95.9264 48.0273 95.8218 47.9998 95.7151 47.9802C95.5728 47.9576 95.4283 47.9468 95.2837 47.9479C95.0595 47.9458 94.837 47.9806 94.628 48.0506C94.439 48.1161 94.2686 48.2162 94.1286 48.3439C93.9878 48.4771 93.8803 48.6339 93.8127 48.8044C93.6609 49.2056 93.6609 49.6381 93.8127 50.0393C93.887 50.2135 94.0027 50.3724 94.1524 50.5057C94.2917 50.6328 94.4608 50.7328 94.6484 50.799C94.8644 50.863 95.0934 50.888 95.321 50.8724Z" fill="#AFB1B8"/>
<path d="M100.736 50.8136H102.591V51.2359H100.169V47.5316H100.75L100.736 50.8136Z" fill="#AFB1B8"/>
<path d="M104.521 51.2359H103.94V47.5316H104.521V51.2359Z" fill="#AFB1B8"/>
<path d="M106.681 47.5492C106.716 47.5662 106.746 47.5892 106.77 47.6167L109.253 50.409C109.25 50.3651 109.25 50.321 109.253 50.277C109.253 50.236 109.253 50.1949 109.253 50.1568V47.517H109.759V51.2362H109.467C109.424 51.2392 109.38 51.2321 109.341 51.2156C109.306 51.1972 109.275 51.1733 109.25 51.1452L106.77 48.3558C106.77 48.3998 106.77 48.4409 106.77 48.482C106.77 48.523 106.77 48.5612 106.77 48.5964V51.2362H106.284V47.5316H106.586C106.619 47.5317 106.651 47.5377 106.681 47.5492Z" fill="#AFB1B8"/>
<path d="M114.036 47.5316V47.9393H111.978V49.1623H113.646V49.5554H111.978V50.8195H114.036V51.2272H111.38V47.5316H114.036Z" fill="#AFB1B8"/>
<path d="M53.1618 24.6555L78.9568 30.9788V53.1368L53.1618 46.8164V24.6555ZM51.5073 22.7667V47.8927L80.6079 55.0285V29.9053L51.5073 22.7667Z" fill="#AFB1B8"/>
<path d="M67.1039 66.6922L38 59.5505V34.4271L67.1039 41.5658V66.6922Z" fill="#AFB1B8"/>
<path d="M51.9897 24.3709L77.4484 30.6149L66.6215 39.9648L41.1594 33.7179L51.9897 24.3709ZM51.5073 22.7667L38 34.4276L67.1039 41.5662L80.6078 29.9052L51.5073 22.7667Z" fill="#AFB1B8"/>
<path d="M68.7415 65.2788L80.6078 55.0315L68.7415 52.1193V65.2788Z" fill="#AFB1B8"/>
</svg>
