<svg width="170" height="92" viewBox="0 0 170 92" fill="none" xmlns="http://www.w3.org/2000/svg">
<rect x="0.5" y="0.5" width="169" height="91" rx="3.5" stroke="#AFB1B8"/>
<path d="M58.7569 60.7352C59.0006 61.0113 59.1304 61.3572 59.1236 61.7121C59.136 61.9437 59.0914 62.1748 58.993 62.3884C58.8947 62.6021 58.7451 62.7927 58.5554 62.9462C58.082 63.2736 57.4956 63.4336 56.9037 63.3969H54V57.2054H56.8442C57.4057 57.1712 57.9626 57.3166 58.42 57.6168C58.6036 57.7575 58.7491 57.9355 58.8448 58.1365C58.9406 58.3375 58.984 58.5562 58.9716 58.7752C58.9883 59.1168 58.8712 59.4525 58.6413 59.7219C58.4206 59.9679 58.1156 60.1385 57.7758 60.2059C58.161 60.2702 58.5087 60.4578 58.7569 60.7352ZM55.3511 59.8006H56.5667C56.843 59.8193 57.1174 59.7463 57.3397 59.5949C57.431 59.5192 57.502 59.4252 57.5473 59.3203C57.5925 59.2154 57.6108 59.1024 57.6007 58.99C57.6093 58.878 57.5906 58.7656 57.5461 58.661C57.5015 58.5564 57.4322 58.4621 57.343 58.385C57.1141 58.2294 56.8312 58.1552 56.5469 58.1763H55.3511V59.8006ZM57.4587 62.1749C57.5562 62.0974 57.6329 62.0003 57.6828 61.8912C57.7326 61.782 57.7543 61.6638 57.7461 61.5458C57.7535 61.4264 57.7309 61.307 57.6799 61.1968C57.6289 61.0867 57.551 60.9888 57.4521 60.9106C57.2142 60.7492 56.9217 60.6699 56.6262 60.6868H55.3511V62.3897H56.6427C56.9334 62.405 57.2212 62.3293 57.4587 62.1749Z" fill="#AFB1B8"/>
<path d="M64.5709 63.3969L62.9886 60.9772H62.394V63.3969H61.033V57.2055H63.6096C64.2591 57.1639 64.9012 57.3523 65.4034 57.7317C65.7635 58.0678 65.9808 58.5106 66.0159 58.9803C66.051 59.45 65.9018 59.9158 65.595 60.2936C65.2771 60.6271 64.8428 60.8494 64.3661 60.9228L66.0508 63.3969H64.5709ZM62.394 60.1333H63.5072C64.2802 60.1333 64.6667 59.8208 64.6667 59.1957C64.6746 59.068 64.6534 58.9403 64.6045 58.8205C64.5556 58.7007 64.48 58.5916 64.3826 58.5C64.1383 58.314 63.8237 58.2238 63.5072 58.249H62.3807L62.394 60.1333Z" fill="#AFB1B8"/>
<path d="M72.0102 62.1506H69.2982L68.8192 63.3968H67.3921L69.8829 57.2749H71.4255L73.9064 63.3968H72.4793L72.0102 62.1506ZM71.6469 61.213L70.6558 58.5997L69.6648 61.213H71.6469Z" fill="#AFB1B8"/>
<path d="M81.3223 63.3968H79.9712L76.942 59.1865V63.3968H75.5942V57.2053H76.942L79.9712 61.4399V57.2053H81.3223V63.3968Z" fill="#AFB1B8"/>
<path d="M89.0325 61.9148C88.7531 62.3823 88.3275 62.7625 87.8102 63.0067C87.2221 63.2787 86.5694 63.4128 85.9107 63.3969H83.5059V57.2054H85.9107C86.5683 57.1897 87.2201 57.3205 87.8102 57.5865C88.3274 57.8252 88.7535 58.2017 89.0325 58.6664C89.3106 59.1699 89.4555 59.7263 89.4555 60.2906C89.4555 60.8549 89.3106 61.4113 89.0325 61.9148ZM87.4865 61.7666C87.8721 61.3553 88.0841 60.8311 88.0841 60.2891C88.0841 59.747 87.8721 59.2229 87.4865 58.8115C87.0204 58.439 86.4126 58.2499 85.7951 58.2852H84.857V62.2929H85.7951C86.4126 62.3283 87.0204 62.1392 87.4865 61.7666Z" fill="#AFB1B8"/>
<path d="M72.8557 22.7667C72.8557 22.7667 90.2944 28.7948 89.9244 37.5179V52.2722C89.9244 52.2722 72.4989 46.241 72.8623 37.5179L72.8557 22.7667Z" fill="#AFB1B8"/>
<path d="M105.46 48.818C108.754 46.7427 112.563 45.4573 116.54 45.0795V40.4608C111.958 42.0778 108.071 45.0097 105.46 48.818Z" fill="#AFB1B8"/>
<path d="M103.482 50.2094C106.177 45.2395 110.85 41.4045 116.54 39.4931V26.1846C116.54 26.1846 91.7049 34.7716 92.2301 47.1938V68.2C92.2301 68.2 93.3368 67.8159 95.0777 67.096C95.0777 66.4246 95.0777 65.747 95.157 65.0665C95.6709 59.2995 98.6653 53.9555 103.482 50.2094Z" fill="#AFB1B8"/>
<path d="M101.12 58.013C101.25 56.5561 101.541 55.1151 101.989 53.7119C98.9896 56.947 97.1734 60.9613 96.7956 65.1905C96.7592 65.5897 96.7394 65.989 96.7295 66.4003C98.14 65.7803 99.7818 65.006 101.506 64.0956C101.066 62.0947 100.936 60.0471 101.12 58.013Z" fill="#AFB1B8"/>
<path d="M102.107 58.0886C101.942 59.9289 102.045 61.7812 102.415 63.5965C109.2 59.8792 116.824 54.1354 116.53 47.1938V46.5889C111.682 47.0855 107.147 49.0259 103.62 52.1119C102.795 54.0243 102.285 56.0387 102.107 58.0886Z" fill="#AFB1B8"/>
</svg>
